<svg id="Layer_1" enable-background="new 0 0 512 512" height="512" viewBox="0 0 512 512" width="512" xmlns="http://www.w3.org/2000/svg"><path d="m33.006 196c-2.176 0-4.39-.358-6.562-1.112-10.434-3.623-15.956-15.019-12.333-25.454 29.965-88.684 112.111-156.337 204.965-168.924 14.251-2.06 28.695 2.181 39.618 11.639 11.001 9.524 17.306 23.331 17.306 37.879v37.967c-1.054 26.539-38.949 26.514-39.995 0v-37.967c0-4.015-2.189-6.51-3.494-7.639-1.258-1.089-3.934-2.834-7.712-2.291-80.163 11.59-146.415 66.176-172.901 142.457-2.869 8.263-10.612 13.445-18.892 13.445zm466.845 60.694c9.458-10.923 13.699-25.363 11.639-39.618-14.025-91.428-81.37-174.507-168.924-204.965-10.432-3.622-21.831 1.899-25.454 12.333-3.623 10.435 1.899 21.831 12.333 25.454 76.28 26.486 130.866 92.738 142.457 172.901.546 3.778-1.201 6.454-2.291 7.712-1.129 1.305-3.624 3.494-7.639 3.494h-37.967c-26.534 1.056-26.519 38.95 0 39.995h37.967c14.548 0 28.354-6.305 37.879-17.306zm-206.917 254.796c92.854-12.588 175-80.241 204.964-168.925 3.624-10.434-1.898-21.83-12.332-25.453-10.435-3.622-21.831 1.898-25.454 12.333-26.486 76.28-92.738 130.866-172.901 142.457-3.776.545-6.453-1.2-7.712-2.291-1.305-1.129-2.499-3.624-2.499-7.639v-37.967c0-11.046-9.949-20-20.995-20s-20 8.954-20 20v37.967c0 14.548 6.31 28.354 17.311 37.879 9.111 7.889 20.669 12.149 32.526 12.149 2.358 0 4.728-.169 7.092-.51zm-98.045-24.925c3.623-10.435-1.899-21.831-12.333-25.454-76.28-26.486-130.866-92.738-142.457-172.901-.546-3.778 1.201-6.454 2.291-7.712 1.129-1.305 3.624-3.499 7.639-3.499h37.967c26.539-1.054 26.514-38.949 0-39.995h-37.968c-14.548 0-28.354 6.31-37.879 17.311-9.458 10.924-13.699 25.364-11.639 39.619 12.587 92.854 80.241 175 168.925 204.964 2.171.754 4.385 1.112 6.561 1.112 8.28 0 16.023-5.182 18.893-13.445zm61.116-147.56c-46.869 0-85-38.131-85-85 4.669-112.764 165.348-112.731 170 .001 0 46.868-38.131 84.999-85 84.999zm0-130c-24.813 0-45 20.187-45 45 2.472 59.699 87.537 59.681 90 0 0-24.813-20.187-45-45-45z"/></svg>